SplineFontDB: 3.0
FontName: Neuton-Hebrew
FullName: Neuton Hebrew
FamilyName: Neuton
Weight: Medium
Copyright: Copyright (c) 2010, 2011 Brian M Zick (http://21326.info/), \nwith Reserved Font Name 'Neuton'.\n\nThis Font Software is licensed under the SIL Open Font License, Version 1.1.\nThis license is available with a FAQ at: http://scripts.sil.org/OFL\n   WITHOUT WARRANTIES OR CONDITIONS OF ANY KIND, either express or implied.\n   See the License for the specific language governing permissions and\n   limitations under the License.
UComments: "2011-9-18: Created." 
Version: 1.44
ItalicAngle: 0
UnderlinePosition: -205
UnderlineWidth: 102
Ascent: 1638
Descent: 410
LayerCount: 2
Layer: 0 0 "Back"  1
Layer: 1 0 "Fore"  0
NeedsXUIDChange: 1
XUID: [1021 467 2011608612 16390363]
FSType: 1
OS2Version: 0
OS2_WeightWidthSlopeOnly: 0
OS2_UseTypoMetrics: 1
CreationTime: 1316368968
ModificationTime: 1323063254
PfmFamily: 17
TTFWeight: 500
TTFWidth: 5
LineGap: 0
VLineGap: 184
OS2TypoAscent: 2106
OS2TypoAOffset: 0
OS2TypoDescent: -485
OS2TypoDOffset: 0
OS2TypoLinegap: 0
OS2WinAscent: 2106
OS2WinAOffset: 0
OS2WinDescent: 485
OS2WinDOffset: 0
HheadAscent: 2106
HheadAOffset: 0
HheadDescent: -485
HheadDOffset: 0
OS2Vendor: 'PfEd'
MarkAttachClasses: 1
DEI: 91125
Encoding: UnicodeBmp
Compacted: 1
UnicodeInterp: none
NameList: Adobe Glyph List
DisplaySize: -96
AntiAlias: 1
FitToEm: 0
WidthSeparation: 100
WinInfo: 13 13 6
BeginPrivate: 0
EndPrivate
Grid
-2048 186 m 0
 4096 186 l 0
-2048 853.333 m 0
 4096 853.333 l 0
-2048 1038 m 0
 4096 1038 l 0
-2048 1147.33 m 0
 4096 1147.33 l 0
-2048 -378 m 0
 4096 -378 l 0
EndSplineSet
BeginChars: 65539 83

StartChar: alef
Encoding: 1488 1488 0
Width: 995
VWidth: 0
Flags: HMW
LayerCount: 2
Fore
SplineSet
909 168 m 1
 909 104 857 14 828 -8 c 1
 802 -12 l 1
 254 712 l 2
 229 745 192 794 175 812 c 1
 177 708 179 529 179 421 c 0
 179 217 217 180 328 180 c 0
 358 180 370 182 394 183 c 1
 369 35 l 1
 335 8 274 -11 196 -11 c 0
 132 -11 36 27 36 93 c 0
 36 237 88 864 124 1121 c 1
 217 1139 l 1
 233 1066 289 955 348 878 c 2
 909 168 l 1
943 751 m 5
 889 795 781 874 760 874 c 4
 722 874 582 495 568 455 c 5
 523 481 l 5
 601 687 667 968 659 1130 c 5
 717 1147 l 5
 742 1118 830 1048 889 1002 c 4
 977 934 981 864 943 751 c 5
EndSplineSet
Colour: ff00ff
EndChar

StartChar: bet
Encoding: 1489 1489 1
Width: 912
VWidth: 0
Flags: HMW
LayerCount: 2
Back
SplineSet
115 187 m 5
 760 187 l 5
 760 207 l 5
 420 556 l 6
 359 618 367 656 339.685 742 c 4
 323.042 789.259 269 819 219 834 c 6
 100 870 l 5
 80 899 l 5
 111 1135 l 5
 179 1142 l 5
 191.214 1113 211.095 1060.59 293 1038 c 6
 322 1030 l 6
 373 1016 422.972 962.923 422.972 800 c 4
 422.972 701 427.161 692 474.87 631 c 4
 534.989 556.47 657.643 474.313 703 449 c 5
 957 211 l 5
 974.234 136.529 938.04 29.5029 912 0 c 5
 110 -14 l 5
 87 2 l 5
 115 187 l 5
846 800 m 5
 816.056 715.68 768.239 599.781 739.529 490 c 5
 737 398 l 5
 620 500 l 5
 647 500 l 5
 685.842 536.726 770 716.453 770 798 c 4
 770 853.404 755.037 865.756 686 878.333 c 5
 654 920.333 l 5
 672 1141.33 l 5
 740 1149.33 l 5
 751.255 1117.28 770.182 1066.72 822 1051.33 c 6
 877 1035 l 6
 962 1010 981.938 919.028 964 804 c 5
 913.968 824 877.152 824 846 800 c 5
EndSplineSet
Fore
SplineSet
42 186 m 5
 663 186 l 5
 693.454 281.909 702 345.102 702 509 c 4
 702 745.778 660.375 853 585 853 c 6
 131 853 l 5
 78 892 l 5
 109 1133 l 5
 174 1148 l 5
 200 1066 227 1038 341 1038 c 6
 651 1038 l 6
 749 1038 799 967 799 643 c 4
 799 447.171 786.81 292.034 746 192 c 13
 884 188 l 5
 859 0 l 5
 57 -12 l 5
 34 4 l 5
 42 186 l 5
EndSplineSet
Colour: ffffff
EndChar

StartChar: gimel
Encoding: 1490 1490 2
Width: 656
VWidth: 0
Flags: HMW
LayerCount: 2
Back
SplineSet
52 186 m 5
 673 186 l 5
 703.454 281.909 712 345.102 712 509 c 4
 712 745.778 670.375 853 595 853 c 6
 141 853 l 5
 88 892 l 5
 119 1133 l 5
 184 1148 l 5
 210 1066 237 1038 351 1038 c 6
 661 1038 l 6
 759 1038 809 967 809 643 c 4
 809 447.171 796.81 292.034 756 192 c 13
 894 188 l 5
 869 0 l 5
 67 -12 l 5
 44 4 l 5
 52 186 l 5
EndSplineSet
Fore
SplineSet
455.341 277 m 17
 418.783 204.323 250.052 12.7202 178.341 -6 c 1
 49.3408 -6 l 1
 30 19 l 1
 46.3408 192 l 1
 143.341 192 l 17
 218 200.098 379.693 246.621 426.341 357 c 1
 455.341 277 l 17
424.341 228 m 1
 419.341 612 l 2
 416.984 792.969 380 857 294.341 857 c 2
 132.341 857 l 1
 91.3408 890 l 1
 122.341 1136 l 1
 189.341 1143 l 1
 203 1084 227.812 1042 298.341 1042 c 2
 343.341 1042 l 2
 440 1042 508.341 967 508.341 799 c 2
 508.341 382 l 1
 522.341 300 576.341 210.152 629.341 168 c 1
 514.341 -12 l 1
 471.341 0 l 1
 450.341 228 l 1
 424.341 228 l 1
EndSplineSet
Colour: ffffff
EndChar

StartChar: dalet
Encoding: 1491 1491 3
Width: 889
VWidth: 0
Flags: HMW
LayerCount: 2
Back
SplineSet
-1 186 m 5
 620 186 l 5
 650.454 281.909 659 345.102 659 509 c 4
 659 745.778 617.375 853 542 853 c 6
 88 853 l 5
 35 892 l 5
 66 1133 l 5
 131 1148 l 5
 157 1066 184 1038 298 1038 c 6
 608 1038 l 6
 706 1038 756 967 756 643 c 4
 756 447.171 743.81 292.034 703 192 c 13
 841 188 l 5
 816 0 l 5
 14 -12 l 5
 -9 4 l 5
 -1 186 l 5
EndSplineSet
Fore
SplineSet
283 1038 m 2
 848 1038 l 1
 855 883 l 1
 839.471 877 787.653 844 767 804 c 1
 782 450 l 2
 786.202 317.948 803.584 223.396 828 129 c 1
 715 -12 l 1
 675 18 l 1
 687 853.333 l 1
 92 853.333 l 1
 29 891 l 1
 62 1127 l 1
 127 1149 l 1
 156.952 1083.64 178.168 1038 283 1038 c 2
EndSplineSet
Colour: ffffff
EndChar

StartChar: he
Encoding: 1492 1492 4
Width: 833
VWidth: 0
Flags: HMW
LayerCount: 2
Back
SplineSet
-6 186 m 5
 615 186 l 5
 645.454 281.909 654 345.102 654 509 c 4
 654 745.778 612.375 853 537 853 c 6
 83 853 l 5
 30 892 l 5
 61 1133 l 5
 126 1148 l 5
 152 1066 179 1038 293 1038 c 6
 603 1038 l 6
 701 1038 751 967 751 643 c 4
 751 447.171 738.81 292.034 698 192 c 13
 836 188 l 5
 811 0 l 5
 9 -12 l 5
 -14 4 l 5
 -6 186 l 5
EndSplineSet
Fore
SplineSet
798 773 m 2
 799.12 964.992 750.96 1039 658 1039 c 2
 279 1039 l 2
 179.429 1039 155.376 1082.18 126 1144 c 1
 61 1135 l 1
 31 892.333 l 1
 88 853.333 l 1
 614 853.333 l 2
 684 853 704 787.747 704 642 c 2
 704 6 l 1
 724 -11 l 1
 793 0 l 1
 798 773 l 2
74 15 m 1
 74 514 l 1
 163 569 l 1
 197 558 l 1
 197 372.538 197 210.731 194 30 c 1
 108 -19 l 1
 74 15 l 1
EndSplineSet
Colour: ffffff
EndChar

StartChar: vav
Encoding: 1493 1493 5
Width: 463
VWidth: 0
Flags: HMW
LayerCount: 2
Back
SplineSet
32 186 m 5
 653 186 l 5
 683.454 281.909 692 345.102 692 509 c 4
 692 745.778 650.375 853 575 853 c 6
 121 853 l 5
 68 892 l 5
 99 1133 l 5
 164 1148 l 5
 190 1066 217 1038 331 1038 c 6
 641 1038 l 6
 739 1038 789 967 789 643 c 4
 789 447.171 776.81 292.034 736 192 c 13
 874 188 l 5
 849 0 l 5
 47 -12 l 5
 24 4 l 5
 32 186 l 5
EndSplineSet
Fore
SplineSet
304 1008 m 2
 381 973 430.708 942.668 430 773 c 2
 425 0 l 1
 356 -11 l 1
 336 6 l 1
 336 642 l 2
 336 747 286 790 225 815 c 2
 91 870 l 1
 71 899 l 1
 99 1132 l 1
 164 1148 l 1
 190.705 1062.86 211.516 1049.92 258 1029 c 2
 304 1008 l 2
EndSplineSet
Colour: ffffff
EndChar

StartChar: zayin
Encoding: 1494 1494 6
Width: 468
VWidth: 0
Flags: HMW
LayerCount: 2
Back
SplineSet
-17 186 m 5
 604 186 l 5
 634.454 281.909 643 345.102 643 509 c 4
 643 745.778 601.375 853 526 853 c 6
 72 853 l 5
 19 892 l 5
 50 1133 l 5
 115 1148 l 5
 141 1066 168 1038 282 1038 c 6
 592 1038 l 6
 690 1038 740 967 740 643 c 4
 740 447.171 727.81 292.034 687 192 c 13
 825 188 l 5
 800 0 l 5
 -2 -12 l 5
 -25 4 l 5
 -17 186 l 5
EndSplineSet
Fore
SplineSet
304 824 m 17
 278.884 794.723 259 757.889 259 654 c 0
 259 524 326.118 260.346 369 120 c 1
 258 -22 l 1
 218 6 l 1
 178.5 166.019 139 405.495 139 592 c 1
 159 665 216 803 241 844 c 9
 241 844 279.836 832 304 824 c 17
59 878 m 1
 26 920 l 1
 49 1131 l 1
 113 1148 l 1
 130 1094 157.187 1063.27 215 1041 c 2
 337 994 l 2
 431 957 454 871 434 749 c 1
 374 781 301 805 261 772 c 1
 249 813 l 1
 59 878 l 1
EndSplineSet
Colour: ffffff
EndChar

StartChar: het
Encoding: 1495 1495 7
Width: 946
VWidth: 0
Flags: HMW
LayerCount: 2
Back
SplineSet
-7 186 m 5
 614 186 l 5
 644.454 281.909 653 345.102 653 509 c 4
 653 745.778 611.375 853 536 853 c 6
 82 853 l 5
 29 892 l 5
 60 1133 l 5
 125 1148 l 5
 151 1066 178 1038 292 1038 c 6
 602 1038 l 6
 700 1038 750 967 750 643 c 4
 750 447.171 737.81 292.034 697 192 c 13
 835 188 l 5
 810 0 l 5
 8 -12 l 5
 -15 4 l 5
 -7 186 l 5
EndSplineSet
Fore
SplineSet
289 1035 m 2
 904 1035 l 1
 912 873 l 1
 824 844 l 1
 839 450 l 1
 843 318 861 223 885 129 c 1
 772 -12 l 1
 732 18 l 1
 744 847 l 1
 213 847 l 1
 213 450 l 2
 213 323 229 223 248 129 c 1
 128 -12 l 1
 88 18 l 1
 138 766 l 2
 141.66 820.755 130 836.427 89 859 c 2
 26 898 l 1
 59 1127 l 1
 124 1146 l 1
 155.68 1080.64 178.12 1035 289 1035 c 2
EndSplineSet
Colour: ffffff
EndChar

StartChar: tet
Encoding: 1496 1496 8
Width: 919
VWidth: 0
Flags: HMW
LayerCount: 2
Back
SplineSet
-18 186 m 1
 603 186 l 1
 633.454 281.909 642 345.102 642 509 c 0
 642 745.778 600.375 853 525 853 c 2
 71 853 l 1
 18 892 l 1
 49 1133 l 1
 114 1148 l 1
 140 1066 167 1038 281 1038 c 2
 591 1038 l 2
 689 1038 739 967 739 643 c 0
 739 447.171 726.81 292.034 686 192 c 9
 824 188 l 1
 799 0 l 1
 -3 -12 l 1
 -26 4 l 1
 -18 186 l 1
EndSplineSet
Fore
SplineSet
59 874.33 m 1
 27 916.33 l 1
 45 1137.33 l 1
 113 1144.33 l 1
 127 1109.33 158 1059.33 215 1037.33 c 2
 273 1016.33 l 2
 367 982.33 390 893.33 370 771.33 c 1
 310 803.33 237 827.33 197 794.33 c 1
 185 835.33 l 1
 59 874.33 l 1
240 846.33 m 1
 214.884 797.018 195 770 195 560 c 0
 195 474.312 224.35 308.147 246.556 202.848 c 1
 277 186.669 l 1
 628 217 l 2
 767.21 229.529 793.714 299.513 793.714 659 c 0
 793.714 764 733.626 853.333 652 853.333 c 0
 569.574 853.333 535 824 541 680 c 1
 481 692 l 1
 441.702 866 444.888 1048 652 1048 c 0
 780.836 1048 890 981.535 890 578 c 0
 890 149.966 803 50.9076 586 30 c 2
 165 -7 l 1
 135 27 l 1
 105 167.631 75 378.092 75 542 c 1
 177 866.33 l 1
 177 866.33 215.836 854.33 240 846.33 c 1
EndSplineSet
Colour: ffffff
EndChar

StartChar: yod
Encoding: 1497 1497 9
Width: 443
VWidth: 0
Flags: HMW
LayerCount: 2
Back
SplineSet
-12 186 m 5
 609 186 l 5
 639.454 281.909 648 345.102 648 509 c 4
 648 745.778 606.375 853 531 853 c 6
 77 853 l 5
 24 892 l 5
 55 1133 l 5
 120 1148 l 5
 146 1066 173 1038 287 1038 c 6
 597 1038 l 6
 695 1038 745 967 745 643 c 4
 745 447.171 732.81 292.034 692 192 c 13
 830 188 l 5
 805 0 l 5
 3 -12 l 5
 -20 4 l 5
 -12 186 l 5
EndSplineSet
Fore
SplineSet
234 1038 m 2
 267 1032 l 2
 329.357 1017.91 384.713 979.965 384.713 860.556 c 0
 384.713 763.55 305.592 639.799 246 569 c 5
 166 583 l 1
 198.38 633.653 249 714.721 249 775 c 0
 249 811.515 231.363 827.661 173 835 c 2
 62 854 l 1
 26 891 l 1
 54 1135 l 1
 118 1145 l 1
 150.955 1068.44 162.28 1051.04 234 1038 c 2
EndSplineSet
Colour: ffffff
EndChar

StartChar: kef.final
Encoding: 1498 1498 10
Width: 845
VWidth: 0
Flags: HMW
LayerCount: 2
Back
SplineSet
-4 186 m 1
 617 186 l 1
 647.454 281.909 656 345.102 656 509 c 0
 656 745.778 614.375 853 539 853 c 2
 85 853 l 5
 32 892 l 5
 63 1133 l 5
 128 1148 l 5
 154 1066 181 1038 295 1038 c 6
 605 1038 l 2
 703 1038 753 967 753 643 c 0
 753 447.171 740.81 292.034 700 192 c 9
 838 188 l 1
 813 0 l 1
 11 -12 l 1
 -12 4 l 1
 -4 186 l 1
EndSplineSet
Fore
SplineSet
85 853 m 1
 32 892 l 1
 63 1133 l 1
 128 1148 l 1
 154 1066 181 1038 295 1038 c 2
 692 1038 l 17
 756.542 1021.06 808 951.059 808 780 c 2
 808 -370 l 1
 739 -381 l 1
 719 -364 l 1
 714 641 l 2
 712.875 740.547 654 853 596 853 c 10
 85 853 l 1
EndSplineSet
Colour: ffffff
EndChar

StartChar: kaf
Encoding: 1499 1499 11
Width: 845
VWidth: 0
Flags: HMW
LayerCount: 2
Back
SplineSet
85 853 m 5
 32 892 l 5
 63 1133 l 5
 128 1148 l 5
 154 1066 181 1038 295 1038 c 6
EndSplineSet
Fore
SplineSet
295 1038 m 2
 606 1038 l 2
 776 1038 856.011 852.716 851 494 c 0
 845 139.846 759 5.44853 540 0 c 10
 67 -12 l 1
 44 4 l 1
 52 186 l 1
 512 186 l 18
 719.323 186 754 315.206 754 500 c 0
 754 743.113 674.184 853 530 853 c 2
 85 853 l 1
 32 892 l 1
 63 1133 l 1
 128 1148 l 1
 154 1066 181 1038 295 1038 c 2
EndSplineSet
Colour: ffffff
EndChar

StartChar: lamed
Encoding: 1500 1500 12
Width: 900
VWidth: 0
Flags: HMW
LayerCount: 2
Fore
SplineSet
135 1262 m 0
 135 1176.96 138 1080 147 1037 c 1
 630 1037 l 2
 835 1037 872 962 872 746 c 0
 872 477.145 792.332 275.091 566 158 c 2
 220 -21 l 1
 202 -3 l 1
 230 187 l 1
 514 321 l 2
 720.512 418.438 765 552.324 765 686 c 0
 765 822 721 850 556 850 c 2
 60 850 l 1
 30 893 l 1
 30 1052.87 60.0288 1272.79 82 1436 c 0
 104.676 1604.45 122 1621 198 1621 c 0
 259.234 1621 308.016 1616.29 335 1610 c 1
 311 1425 l 1
 210 1425 l 2
 151 1425 135 1380.72 135 1262 c 0
EndSplineSet
Colour: ffffff
EndChar

StartChar: mem.final
Encoding: 1501 1501 13
Width: 883
VWidth: 0
Flags: HMW
LayerCount: 2
Back
SplineSet
94 853 m 5
 41 892 l 5
 72 1133 l 5
 137 1148 l 5
 163 1066 190 1038 304 1038 c 6
EndSplineSet
Fore
SplineSet
304 1038 m 6
 715 1038 l 6
 804 1038 850 967 850 684 c 6
 850 196 l 22
 850 94.7979 827.612 0.640625 779 0 c 14
 74 -12 l 5
 51 4 l 5
 48 532 l 22
 46.8012 723.492 131 814.059 208 865 c 5
 311 865 l 5
 199.049 829 158 716.591 158 556 c 6
 158 286 l 6
 158 228 161 186 215 186 c 14
 691 186 l 22
 751.524 186 753 268.19 753 379 c 6
 753 630 l 6
 753 783 712 853 639 853 c 6
 94 853 l 5
 41 892 l 5
 72 1133 l 5
 137 1148 l 5
 163 1066 190 1038 304 1038 c 6
EndSplineSet
Colour: ffffff
EndChar

StartChar: mem
Encoding: 1502 1502 14
Width: 1008
VWidth: 0
Flags: HMW
LayerCount: 2
Back
SplineSet
74 853 m 5
 21 892 l 5
 52 1133 l 5
 117 1148 l 5
 143 1066 170 1038 284 1038 c 6
EndSplineSet
Fore
SplineSet
978 248 m 2
 939 682 l 2
 922 868 867 1040 741 1040 c 2
 595 1040 l 1
 554 1009 l 1
 312 722 l 1
 297 722 l 1
 336 908 321 995 201 1036 c 0
 157 1051 129 1092 114 1145 c 1
 51 1138 l 1
 27 919 l 1
 78 866 l 1
 165 840 212 823 212 702 c 1
 48 9 l 1
 91 -19 l 1
 221 70 l 1
 297 635 l 17
 366 734 474 833 552 852 c 1
 702 852 l 2
 764 852 838 756.663 849 638 c 2
 874 369 l 2
 887 221 844 186 794 186 c 10
 420 186 l 1
 392 4 l 1
 415 -12 l 1
 842 0 l 17
 935 5 987 149 978 248 c 2
EndSplineSet
Colour: ffffff
EndChar

StartChar: nun.final
Encoding: 1503 1503 15
Width: 378
VWidth: 0
Flags: HMW
LayerCount: 2
Back
SplineSet
73 853 m 5
 20 892 l 5
 51 1133 l 5
 116 1148 l 5
 142 1066 169 1038 283 1038 c 6
EndSplineSet
Fore
SplineSet
19 891.33 m 17
 50 1132.33 l 1
 115 1147.33 l 1
 125.706 1114.34 150.308 1056.13 193 1038 c 0
 300.768 987.593 342 959.919 342 783 c 2
 342 -367 l 1
 260 -378 l 1
 240 -361 l 1
 235 644 l 2
 234 742.896 204 790.931 172 806 c 2
 68 859 l 9
 19 891.33 l 17
EndSplineSet
Colour: ffffff
EndChar

StartChar: nun
Encoding: 1504 1504 16
Width: 448
VWidth: 0
Flags: HMW
LayerCount: 2
Back
SplineSet
103 853 m 5
 50 892 l 5
 81 1133 l 5
 146 1148 l 5
 172 1066 199 1038 313 1038 c 2
410 0 m 1
 341 -11 l 1
 321 6 l 1
EndSplineSet
Fore
SplineSet
146 1148 m 1
 166 1084 194.976 1052.43 261 1039 c 0
 337 1025 399.279 967.83 408 783 c 2
 415 153 l 2
 416 86 414 55 381 0 c 1
 31 0 l 9
 38 189 l 17
 230 189 l 2
 270 189 314 215 314 274 c 2
 314 654 l 2
 314 759 283 816 251 826 c 2
 103 873 l 1
 50 912 l 1
 81 1133 l 1
 146 1148 l 1
EndSplineSet
Colour: ffffff
EndChar

StartChar: samekh
Encoding: 1505 1505 17
Width: 930
VWidth: 0
Flags: HMWO
LayerCount: 2
Back
SplineSet
260 824 m 17
 234.884 794.722 215 757.889 215 654 c 0
 215 524 282.118 260.346 325 120 c 1
 214 -22 l 1
 174 6 l 1
 134.5 166.019 95 405.495 95 592 c 1
 115 665 172 803 197 844 c 9
 197 844 235.836 832 260 824 c 17
EndSplineSet
Fore
SplineSet
769 1038 m 6
 913 1038 908.309 896.199 889 725 c 4
 844 326 791 44 391 0 c 6
 166 -25 l 5
 135 0 l 5
 97.2725 92 52 347 52 612 c 5
 83 710 151 831 170 865 c 5
 318 865 l 5
 218 853 173 770 173 649 c 4
 173 523 234.393 228 274 189 c 5
 433 197 l 6
 702 211 751 383 783 570 c 4
 818.567 777.846 779.863 853 691 853 c 6
 92 853 l 5
 29 892 l 5
 70 1123 l 5
 155 1148 l 5
 179 1083 200 1038 292 1038 c 6
 769 1038 l 6
EndSplineSet
Colour: ffffff
EndChar

StartChar: ayin
Encoding: 1506 1506 18
Width: 884
VWidth: 0
Flags: HMW
LayerCount: 2
Back
SplineSet
463 277 m 17
 426.442 204.837 257.711 14.5875 186 -4 c 1
 57 -8 l 1
 37.6592 21 l 1
 54 192 l 1
 131 192 l 17
 216.461 192 384.055 246.621 434 357 c 1
 463 277 l 17
432 228 m 1
 427 562 l 2
 426 656 422 857 302 857 c 2
 170 857 l 1
 99 880 l 1
 130 1136 l 1
 197 1143 l 1
 222 1101 239 1042 316 1042 c 2
 351 1042 l 2
 460.668 1040.93 516 909 516 799 c 2
 516 382 l 1
 530 300 584 210.152 637 168 c 1
 522 -12 l 1
 479 0 l 1
 458 228 l 1
 432 228 l 1
EndSplineSet
Fore
SplineSet
589 860 m 5
 528 893 l 5
 552 1136 l 5
 615 1143 l 5
 632 1098 663 1061 712 1050 c 4
 829 1023 855 947 855 852 c 4
 855 429.529 663.154 30.8438 186 -113 c 5
 46 -119 l 5
 28 -101 l 5
 36 80 l 5
 162 80 l 5
 500.829 122.126 766 343.589 766 748 c 5
 766 781 754 812 717 822 c 6
 589 860 l 5
448 806 m 1
 138 857 l 1
 77 890 l 1
 101 1133 l 1
 164 1140 l 1
 181 1095 211.441 1053.63 261 1047 c 0
 418 1021.82 439 942.688 448 806 c 1
340 900 m 1
 430 116 l 9
 346 96 l 17
 247 893 l 1
 340 900 l 1
EndSplineSet
Colour: ffff00
EndChar

StartChar: pe.final
Encoding: 1507 1507 19
Width: 845
VWidth: 0
Flags: HMW
LayerCount: 2
Back
SplineSet
823 -361 m 5
 818 644 l 6
 817 749 787 800 755 816 c 6
 651 869 l 1
 611 908 l 1
 629 1135 l 1
 697 1142 l 1
 707.294 1108.51 731.161 1049.85 772 1031 c 2
 785 1025 l 2
 840 1000 912 958.208 912 783 c 6
 912 -367 l 5
 843 -378 l 5
 823 -361 l 5
EndSplineSet
Fore
SplineSet
323 862 m 17
 189 849.547 169 723.105 169 680 c 0
 169 606 196 587 269 587 c 2
 455 587 l 1
 430 410 l 1
 371.962 404.789 268.99 401 137 401 c 0
 98.4844 401 52 431.621 52 497 c 2
 52 610 l 1
 76 670.121 141 812.667 174 866 c 1
 323 862 l 17
596 853 m 14
 94 853 l 5
 29 892 l 5
 70 1123 l 5
 155 1148 l 5
 179 1083 200 1038 292 1038 c 6
 692 1038 l 21
 756.542 1021.26 808 952.07 808 783 c 6
 808 -367 l 5
 739 -378 l 5
 719 -361 l 5
 714 644 l 6
 712.875 742.138 654 853 596 853 c 14
EndSplineSet
Colour: ffffff
EndChar

StartChar: pe
Encoding: 1508 1508 20
Width: 879
VWidth: 0
Flags: HMW
LayerCount: 2
Back
SplineSet
126 1020 m 21
 150.267 1112 234.769 1229 266 1263 c 5
 389 1263 l 5
 265 1234 236 1129 236 984 c 6
 236 684 l 6
 236 626 239 584 293 584 c 14
 769 584 l 22
 829.524 584 831 666.19 831 777 c 6
 831 1028 l 6
 831 1181 790.286 1251 717 1251 c 6
 183 1251 l 5
 120 1290 l 5
 161 1521 l 5
 246 1546 l 5
 270 1481 291 1436 383 1436 c 6
 793 1436 l 6
 882.486 1436 928 1316 928 1082 c 6
 928 594 l 22
 928 492.797 905.612 398.641 857 398 c 14
 152 386 l 5
 129 402 l 5
 126 1020 l 21
EndSplineSet
Fore
SplineSet
326 862 m 21
 192 849.547 172 723.105 172 680 c 4
 172 606 199 587 272 587 c 6
 458 587 l 5
 433 410 l 5
 374.962 404.789 271.99 401 140 401 c 4
 101.484 401 55 431.621 55 497 c 6
 55 610 l 5
 79 670.121 144 812.667 177 866 c 5
 326 862 l 21
51 186 m 1
 661 186 l 17
 699 225 752 281 753 409 c 2
 753 530 l 2
 753 752 700 819 649 853 c 9
 97 853 l 1
 32 892 l 1
 73 1123 l 1
 158 1148 l 1
 182 1083 203 1038 295 1038 c 1
 438 1038 582 1038 725 1038 c 1
 799 1008 850 883 850 584 c 2
 850 376 l 18
 850 182 784 57 719 0 c 9
 66 -12 l 1
 43 4 l 1
 51 186 l 1
EndSplineSet
Colour: ffffff
EndChar

StartChar: tsadi.final
Encoding: 1509 1509 21
Width: 925
VWidth: 0
Flags: HMW
LayerCount: 2
Back
SplineSet
25 187 m 5
 668 187 l 5
 670 197 l 5
 350 556 l 6
 292.088 620.97 297 656 269.685 742 c 4
 253.042 794.397 201.538 832.497 149 844 c 6
 50 863 l 5
 10 902 l 5
 41 1135 l 5
 109 1142 l 5
 123.137 1111.22 146.587 1049.31 212 1040 c 6
 252 1030 l 6
 302.99 1017 352.972 962.923 352.972 800 c 4
 352.972 701 357.161 692 404.87 631 c 4
 464.989 556.47 587.643 474.313 633 449 c 5
 887 211 l 5
 904.234 136.529 868.04 29.503 842 0 c 5
 40 -12 l 5
 17 4 l 5
 25 187 l 5
769 800 m 5
 739.055 715.679 691.239 599.781 662.529 490 c 5
 652 418 l 5
 550 500 l 5
 577 500 l 5
 615.842 536.725 700 716.453 700 798 c 4
 700 853.404 685.037 865.756 616 878.333 c 5
 584 920.333 l 5
 602 1141.33 l 5
 670 1149.33 l 5
 681.255 1117.28 705 1065.14 752 1051.33 c 6
 807 1035 l 6
 891.316 1009.96 911.938 919.029 894 804 c 5
 841 824 802 824 769 800 c 5
EndSplineSet
Fore
SplineSet
758 800 m 5
 678 653 602 517 436.529 205 c 5
 426 133 l 5
 361 345 l 5
 418 345 l 5
 494 417 664 746.074 664 835 c 4
 664 858.021 639.014 867.635 610 878.333 c 5
 578 920.333 l 5
 596 1141.33 l 5
 664 1149.33 l 5
 675.255 1117.28 699 1065.14 746 1051.33 c 6
 801 1035 l 6
 885.315 1009.96 905.938 919.028 888 804 c 5
 832.88 824 792.32 824 758 800 c 5
340 -361 m 5
 314 265 l 6
 294.741 728.698 275.704 773.122 172 816 c 6
 68 859 l 5
 28 898 l 5
 46 1135 l 5
 114 1142 l 5
 124.843 1110.62 147.914 1049.59 193 1038 c 4
 333 1002 338 973 356 783 c 6
 403 279 l 5
 426 133 l 5
 492 -307 l 5
 370 -378 l 5
 340 -361 l 5
EndSplineSet
Colour: ffffff
EndChar

StartChar: tsadi
Encoding: 1510 1510 22
Width: 952
VWidth: 0
Flags: HMW
LayerCount: 2
Back
SplineSet
782 808 m 5
 702 661 626 525 460.529 213 c 5
 450 141 l 5
 385 353 l 5
 442 353 l 5
 518 425 688 754.074 688 843 c 4
 688 866.021 663.014 875.635 634 886.333 c 5
 602 928.333 l 5
 620 1149.33 l 5
 688 1157.33 l 5
 699.255 1125.28 723 1073.14 770 1059.33 c 6
 825 1043 l 6
 909.315 1017.96 929.938 927.028 912 812 c 5
 856.88 832 816.32 832 782 808 c 5
364 -353 m 5
 338 273 l 6
 318.741 736.698 299.704 781.122 196 824 c 6
 92 867 l 5
 52 906 l 5
 70 1143 l 5
 138 1150 l 5
 148.843 1118.62 171.914 1057.59 217 1046 c 4
 357 1010 362 981 380 791 c 6
 427 287 l 5
 450 141 l 5
 516 -299 l 5
 394 -370 l 5
 364 -353 l 5
EndSplineSet
Fore
SplineSet
65 187 m 5
 710 187 l 5
 710 207 l 5
 370 556 l 6
 309 618 317 656 289.685 742 c 4
 273.042 789.259 219 819 169 834 c 6
 50 870 l 5
 30 899 l 5
 61 1135 l 5
 129 1142 l 5
 141.214 1113 161.095 1060.59 243 1038 c 6
 272 1030 l 6
 323 1016 372.972 962.923 372.972 800 c 4
 372.972 701 377.161 692 424.87 631 c 4
 484.989 556.47 607.643 474.313 653 449 c 5
 907 211 l 5
 924.234 136.529 888.04 29.5029 862 0 c 5
 60 -14 l 5
 37 2 l 5
 65 187 l 5
796 800 m 5
 766.056 715.68 718.239 599.781 689.529 490 c 5
 687 398 l 5
 570 500 l 5
 597 500 l 5
 635.842 536.726 720 716.453 720 798 c 4
 720 853.404 705.037 865.756 636 878.333 c 5
 604 920.333 l 5
 622 1141.33 l 5
 690 1149.33 l 5
 701.255 1117.28 720.182 1066.72 772 1051.33 c 6
 827 1035 l 6
 912 1010 931.938 919.028 914 804 c 5
 863.968 824 827.152 824 796 800 c 5
EndSplineSet
Colour: ffffff
EndChar

StartChar: qof
Encoding: 1511 1511 23
Width: 945
VWidth: 0
Flags: HMW
LayerCount: 2
Back
SplineSet
200 586 m 2
 210 765 177 847 96 847 c 2
 -424 847 l 1
 -487 886 l 1
 -434 1117 l 1
 -349 1142 l 1
 -325 1079 -306 1035 -224 1035 c 2
 155 1034 l 2
 238 1034 278 965 280 790 c 2
 293 -313 l 1
 189 -382 l 1
 149 -352 l 1
 200 586 l 2
EndSplineSet
Fore
SplineSet
72 -352 m 1
 76 571 l 1
 147 617 l 1
 180 610 l 1
 206 -313 l 1
 112 -382 l 1
 72 -352 l 1
737 235 m 2
 485 47 l 1
 467 65 l 1
 475 246 l 1
 609 343 l 2
 747.412 443.193 819.15 473.05 819.15 692.172 c 0
 819.15 817.731 714.803 853 549 853 c 2
 91 853 l 1
 28 892 l 1
 69 1123 l 1
 154 1148 l 1
 178 1083 199 1038 291 1038 c 2
 623 1038 l 2
 768.443 1038 916.676 950.229 916.676 711.595 c 0
 916.676 405 848.255 317.999 737 235 c 2
EndSplineSet
Colour: ffffff
EndChar

StartChar: resh
Encoding: 1512 1512 24
Width: 843
VWidth: 0
Flags: HMW
LayerCount: 2
Fore
SplineSet
808 773 m 2
 809.024 961.383 764.992 1034 680 1034 c 2
 291 1035 l 2
 209 1035 190 1079 166 1142 c 1
 81 1117 l 1
 28 886 l 1
 91 847 l 1
 621 847 l 2
 693.433 847 714 783.379 714 642 c 2
 714 6 l 1
 734 -11 l 1
 803 0 l 1
 808 773 l 2
EndSplineSet
Colour: ffffff
EndChar

StartChar: shin
Encoding: 1513 1513 25
Width: 1029
VWidth: 0
Flags: HMW
LayerCount: 2
Fore
SplineSet
28 894 m 1
 63 1134 l 1
 140 1140 l 1
 178 1040 l 1
 299 990 l 1
 328 953 l 1
 286 786 l 1
 276 782 l 1
 225 801 l 1
 183 754 159 695 159 595 c 0
 159 550 203 288 240 177 c 1
 669 211 l 1
 768 295 911 640 911 727 c 0
 911 771 883 799 836 817 c 2
 730 853 l 1
 710 881 l 1
 740 1125 l 1
 810 1136 l 1
 851 1030 l 1
 892 1011 l 1
 960 978 1000 944 1000 861 c 0
 1000 604 800 184 714 28 c 1
 148 -12 l 1
 129 6 123 15 117 22 c 1
 117 22 67 323 67 519 c 0
 67 637 99 756 157 809 c 1
 157 821 l 1
 59 860 l 1
 28 894 l 1
227 190 m 1
 433 1133 l 1
 512 1138 l 1
 550 1034 l 1
 643 997 l 1
 664 957 l 1
 629 794 l 1
 616 792 l 1
 466 840 l 1
 300 172 l 1
 229 166 l 1
 227 175 229 179 227 190 c 1
EndSplineSet
Colour: ff00ff
EndChar

StartChar: tav
Encoding: 1514 1514 26
Width: 838
VWidth: 0
Flags: HMW
LayerCount: 2
Fore
SplineSet
714 586 m 2
 721 766 691 847 610 847 c 2
 90 847 l 1
 27 886 l 1
 80 1117 l 1
 165 1142 l 1
 189 1079 208 1035 290 1035 c 2
 669 1034 l 2
 752 1034 790.899 964.873 794 790 c 2
 807 57 l 1
 703 -12 l 1
 663 18 l 1
 714 586 l 2
247 835 m 1
 220 785 186 676 186 602 c 0
 186 450 333 308 333 131 c 0
 333 81 317 54 296 2 c 1
 58 0 l 1
 36 83 l 1
 130 127 l 1
 136 141 137 161 137 182 c 0
 137 275 92 417 92 514 c 0
 92 627 112 726 173 825 c 1
 247 835 l 1
EndSplineSet
Colour: ff00ff
EndChar

StartChar: uni05D0.alt
Encoding: 0 0 27
Width: 835
VWidth: 0
Flags: HMW
LayerCount: 2
Back
SplineSet
794.829 624.613 m 5
 773.027 642.255 724.248 673.631 697.91 673.631 c 0
 671.909 673.631 585.248 429.842 573.248 303.842 c 1
 467.248 377.842 l 1
 624.568 712.901 l 1
 473.416 799.842 l 1
 480.533 861.025 487.333 915.495 493.248 957.842 c 1
 553.545 972.842 l 5
 580.077 912.758 607.248 894.842 671.231 864.07 c 6
 709 846 l 6
 796.69 804.045 825.252 732.169 794.829 624.613 c 5
EndSplineSet
Fore
SplineSet
726 142 m 1
 726 88 682 12 658 -7 c 1
 636 -10 l 1
 171 612 l 2
 150 640 118 682 104 697 c 1
 106 609 107 448 107 357 c 0
 107 184 140 153 234 153 c 0
 260 153 270 154 290 155 c 1
 268 30 l 1
 239 7 188 -9 122 -9 c 0
 68 -9 -13 23 -13 79 c 0
 -13 201 31 741 61 959 c 1
 140 974 l 1
 154 912 201 818 251 753 c 2
 726 142 l 1
755 648 m 1
 709 685 618 752 600 752 c 0
 568 752 449 420 437 386 c 1
 399 408 l 1
 465 582 521 821 514 959 c 1
 574 973 l 1
 594 946 646 906 691 873 c 2
 709 860 l 2
 785 804 787 743 755 648 c 1
EndSplineSet
Colour: ffffff
EndChar

StartChar: a
Encoding: 97 97 31
Width: 830
VWidth: 0
Flags: W
HStem: -24 123<190.5 410.153> 1 86<782 819> 428 57<407.813 508> 807 93<246.628 440.012>
VStem: 47 175<123.621 303.932> 81 139<637.141 782.037> 508 162<149.1 428 480.961 737.155>
LayerCount: 2
Fore
SplineSet
47 168 m 4xba
 47 315 182 462 508 485 c 5
 508 540 l 6
 508 675 469 807 331 807 c 4
 235 807 234 756 220 592 c 5
 167 592 81 596 81 695 c 4
 81 804 285 900 423 900 c 4
 601 900 670 804 670 593 c 6
 670 230 l 6
 670 138 689 111 782 96 c 6
 832 87 l 5
 819 1 l 5x76
 772 -5 742 -18 683 -18 c 4
 567 -18 528 57 528 116 c 6
 528 131 l 5
 517 131 l 5
 490 78 407 -24 243 -24 c 4
 138 -24 47 46 47 168 c 4xba
222 215 m 4xba
 222 165 260 99 334 99 c 4
 404 99 475 151 508 188 c 5
 508 428 l 5
 290 385 222 311 222 215 c 4xba
EndSplineSet
Colour: ffffff
EndChar

StartChar: b
Encoding: 98 98 32
Width: 955
VWidth: 0
Flags: HW
HStem: -23 110<331.765 621.585> 768 131<425.299 626.83> 1238 20G<11.1905 295.87>
VStem: 136 163<124.454 711.68 744 1108> 725 179<258.586 647.801>
LayerCount: 2
Fore
SplineSet
-15 1161 m 1
 -2 1237 l 1
 275 1258 l 1
 299 1235 l 1
 299 849 l 1
 285 744 l 1
 296 744 l 1
 375 833 468 899 581 899 c 0
 775 899 904 725 904 472 c 0
 904 155 671 -23 411 -23 c 0
 321 -23 216 -1 136 49 c 1
 136 1108 l 1
 -15 1161 l 1
299 155 m 1
 339 115 423 87 510 87 c 0
 624 87 725 185 725 408 c 0
 725 556 684 768 513 768 c 0
 457 768 378 755 299 672 c 1
 299 155 l 1
EndSplineSet
Colour: ffffff
EndChar

StartChar: c
Encoding: 99 99 33
Width: 778
VWidth: 0
Flags: HW
LayerCount: 2
Fore
SplineSet
50 415 m 0
 50 712 258 900 475 900 c 0
 642 900 716 826 716 747 c 0
 716 688 672 648 589 642 c 1
 561 709 515 806 428 806 c 0
 309 806 231 688 231 507 c 0
 231 340 320 90 528 90 c 0
 627 90 683 121 730 151 c 1
 755 93 l 1
 702 29 574 -30 445 -30 c 0
 205 -30 50 175 50 415 c 0
EndSplineSet
Colour: ffffff
EndChar

StartChar: d
Encoding: 100 100 34
Width: 987
VWidth: 0
Flags: HW
HStem: -21 126<336.869 544.345> -4 83<928 962> 802 98<325.189 569.168> 1245 20G<566.333 815.5>
VStem: 54 176<229.272 611.068> 657 162<108.896 131 159.877 720.768 856 1111>
LayerCount: 2
Fore
SplineSet
54 399 m 0xbc
 54 690 285 900 491 900 c 0
 557 900 630 880 663 856 c 1
 670 856 l 1
 658 984 l 1
 658 1111 l 1
 506 1166 l 1
 520 1241 l 1
 798 1265 l 1
 819 1241 l 1
 819 215 l 2
 819 110 862 104 928 89 c 2
 973 79 l 1
 962 -4 l 1x7c
 903 -19 877 -23 815 -23 c 0
 715 -23 666 41 666 124 c 2
 666 131 l 1
 657 131 l 1
 601 54 518 -21 380 -21 c 0
 203 -21 54 124 54 399 c 0xbc
230 462 m 0
 230 225 325 105 451 105 c 0xbc
 534 105 623 157 657 197 c 1
 657 666 l 1
 604 753 510 802 443 802 c 0
 286 802 230 653 230 462 c 0
EndSplineSet
Colour: ffffff
EndChar

StartChar: e
Encoding: 101 101 35
Width: 802
VWidth: 0
Flags: W
HStem: -30 132<373.13 633.132> 801 98<317.899 516.372>
VStem: 53 178<272.847 445 523 638.97> 553 178<545.363 763.979>
LayerCount: 2
Fore
SplineSet
53 428 m 0
 53 728 270 899 464 899 c 0
 609 899 731 792 731 581 c 0
 731 550 723 485 715 451 c 1
 231 445 l 1
 239 288 323 102 510 102 c 0
 583 102 634 101 737 157 c 1
 758 104 l 1
 679 21 561 -30 429 -30 c 0
 241 -30 53 124 53 428 c 0
233 523 m 1
 547 546 l 1
 551 562 553 599 553 615 c 0
 553 734 511 801 415 801 c 0
 335 801 243 717 233 523 c 1
EndSplineSet
Colour: ffffff
EndChar

StartChar: f
Encoding: 102 102 36
Width: 694
VWidth: 0
Flags: HW
LayerCount: 2
Fore
SplineSet
35 0 m 1
 47 73 l 1
 199 116 l 1
 199 784 l 1
 50 784 l 1
 62 857 l 1
 200 879 l 1
 233 1167 433 1304 575 1304 c 0
 680 1304 762 1269 762 1189 c 0
 762 1140 706 1090 673 1077 c 1
 633 1126 559 1198 497 1198 c 0
 423 1198 372 1153 368 981 c 1
 366 873 l 1
 623 873 l 1
 611 784 l 1
 366 784 l 1
 366 121 l 1
 611 83 l 1
 604 0 l 1
 35 0 l 1
EndSplineSet
Colour: ffffff
EndChar

StartChar: g
Encoding: 103 103 37
Width: 890
VWidth: 0
Flags: HW
LayerCount: 2
Fore
SplineSet
24 -162 m 0
 24 -70 135 -10 184 18 c 1
 184 27 l 1
 122 57 88 107 88 164 c 0
 88 218 181 298 255 328 c 1
 255 335 l 1
 205 348 92 454 92 589 c 0
 92 754 258 896 426 896 c 0
 518 896 586 869 636 833 c 1
 651 833 851 849 851 849 c 1
 871 826 l 1
 832 715 l 1
 816 715 l 1
 693 755 l 1
 693 738 l 1
 706 710 727 649 727 599 c 0
 727 415 540 301 389 301 c 0
 349 301 310 308 299 311 c 1
 276 287 249 254 249 223 c 0
 249 183 276 151 432 151 c 2
 568 151 l 2
 716 151 845 124 845 -50 c 0
 845 -224 614 -386 386 -386 c 0
 202 -386 24 -334 24 -162 c 0
200 -108 m 0
 200 -242 311 -279 440 -279 c 0
 571 -279 676 -232 676 -100 c 0
 676 -11 607 3 426 3 c 2
 252 3 l 1
 252 3 200 -16 200 -108 c 0
252 608 m 0
 252 470 344 380 417 380 c 0
 506 380 564 439 564 580 c 0
 564 688 507 823 402 823 c 0
 300 823 252 739 252 608 c 0
EndSplineSet
Colour: ffffff
EndChar

StartChar: h
Encoding: 104 104 38
Width: 1029
VWidth: 0
Flags: HW
LayerCount: 2
Fore
SplineSet
10 0 m 1
 21 79 l 1
 175 116 l 1
 175 1117 l 1
 15 1171 l 1
 27 1247 l 1
 316 1269 l 1
 341 1245 l 1
 341 850 l 1
 325 744 l 1
 335 744 l 1
 418 836 516 900 629 900 c 0
 767 900 872 842 872 599 c 2
 872 114 l 1
 1017 79 l 1
 1005 0 l 1
 556 0 l 1
 568 74 l 1
 703 114 l 1
 706 580 l 2
 706 722 613 764 534 764 c 0
 477 764 411 748 341 675 c 1
 341 116 l 1
 487 80 l 1
 475 0 l 1
 10 0 l 1
EndSplineSet
Colour: ffffff
EndChar

StartChar: i
Encoding: 105 105 39
Width: 539
VWidth: 0
Flags: HW
HStem: 0 79<49 107.506 466.007 517> 865 20G<98.6522 363> 1070 236<184.925 368.696>
VStem: 156 241<1098.79 1279.41> 200 168<116 731>
LayerCount: 2
Fore
SplineSet
37 0 m 1xe8
 49 79 l 1
 200 116 l 1
 200 731 l 1
 49 786 l 1
 62 862 l 1
 343 885 l 1
 368 860 l 1
 368 116 l 1
 528 80 l 1
 517 0 l 1
 37 0 l 1xe8
156 1194 m 0xf0
 156 1258 213 1306 275 1306 c 0
 341 1306 397 1256 397 1192 c 0
 397 1125 341 1070 275 1070 c 0
 209 1070 156 1127 156 1194 c 0xf0
EndSplineSet
Colour: ffffff
EndChar

StartChar: j
Encoding: 106 106 40
Width: 463
VWidth: 0
Flags: HW
LayerCount: 2
Fore
SplineSet
-34 -295 m 1
 74 -215 187 -98 187 172 c 2
 187 731 l 1
 37 786 l 1
 52 866 l 1
 331 887 l 1
 356 862 l 1
 356 151 l 2
 356 -131 212 -274 61 -359 c 2
 15 -383 l 1
 -34 -295 l 1
139 1189 m 0
 139 1256 196 1308 263 1308 c 0
 329 1308 384 1254 384 1188 c 0
 384 1121 329 1063 262 1063 c 0
 195 1063 139 1122 139 1189 c 0
EndSplineSet
Colour: ffffff
EndChar

StartChar: k
Encoding: 107 107 41
Width: 972
VWidth: 0
Flags: HW
LayerCount: 2
Fore
SplineSet
10 0 m 1
 21 79 l 1
 174 116 l 1
 174 1108 l 1
 16 1161 l 1
 28 1237 l 1
 316 1260 l 1
 341 1235 l 1
 341 116 l 1
 500 80 l 1
 488 0 l 1
 10 0 l 1
365 432 m 1
 365 452 l 1
 624 777 l 1
 491 817 l 1
 501 893 l 1
 927 893 l 1
 913 819 l 1
 764 777 l 1
 527 487 l 1
 606 386 l 2
 753 199 805 99 931 83 c 2
 971 77 l 1
 960 0 l 1
 945 -4 885 -19 841 -19 c 0
 709 -19 634 66 470 287 c 1
 365 432 l 1
EndSplineSet
Colour: ffffff
EndChar

StartChar: l
Encoding: 108 108 42
Width: 510
VWidth: 0
Flags: HW
LayerCount: 2
Fore
SplineSet
10 0 m 1
 21 79 l 1
 174 116 l 1
 174 1117 l 1
 16 1171 l 1
 28 1247 l 1
 316 1269 l 1
 341 1245 l 1
 341 116 l 1
 500 80 l 1
 488 0 l 1
 10 0 l 1
EndSplineSet
Colour: ffffff
EndChar

StartChar: m
Encoding: 109 109 43
Width: 1584
VWidth: 0
Flags: HW
LayerCount: 2
Fore
SplineSet
43 0 m 1
 53 74 l 1
 203 114 l 1
 203 719 l 1
 43 770 l 1
 53 845 l 1
 357 887 l 1
 375 866 l 1
 357 740 l 1
 366 740 l 1
 430 819 540 896 666 896 c 0
 756 896 856 853 887 731 c 1
 899 731 l 1
 963 814 1068 888 1194 888 c 0
 1361 888 1430 783 1430 609 c 2
 1430 116 l 1
 1568 80 l 1
 1555 1 l 1
 1130 1 l 1
 1137 74 l 1
 1262 114 l 1
 1262 585 l 2
 1262 681 1202 760 1094 760 c 0
 1005 760 949 709 903 660 c 1
 903 114 l 1
 1051 79 l 1
 1041 0 l 1
 598 0 l 1
 609 74 l 1
 740 114 l 1
 740 585 l 2
 740 690 665 760 569 760 c 0
 495 760 422 730 372 673 c 1
 372 114 l 1
 515 79 l 1
 504 0 l 1
 43 0 l 1
EndSplineSet
Colour: ffffff
EndChar

StartChar: n
Encoding: 110 110 44
Width: 1337
VWidth: 0
Flags: W
HStem: 0 73<47 99.7984 462.901 501 599 647.253 997.649 1038> 761 138<499.21 685.86>
VStem: 198 168<114 714.047> 737 167<114 708.215>
LayerCount: 2
Fore
SplineSet
37 0 m 1
 47 73 l 1
 198 114 l 1
 198 721 l 1
 44 773 l 1
 54 849 l 1
 352 888 l 1
 369 869 l 1
 352 741 l 1
 362 741 l 1
 429 821 537 899 663 899 c 0
 820 899 904 794 904 616 c 2
 904 114 l 1
 1048 79 l 1
 1038 0 l 1
 589 0 l 1
 599 73 l 1
 737 114 l 1
 737 577 l 2
 737 706 662 761 563 761 c 0
 490 761 416 731 366 675 c 1
 366 114 l 1
 515 79 l 1
 501 0 l 1
 37 0 l 1
EndSplineSet
Colour: ffffff
EndChar

StartChar: o
Encoding: 111 111 45
Width: 802
VWidth: 0
Flags: W
HStem: -27 97<367.686 609.797> 798 105<324.3 564.897>
VStem: 52 178<242.286 641.227> 704 178<226.286 619.183>
LayerCount: 2
Fore
SplineSet
52 426 m 4
 52 730 264 903 487 903 c 4
 733 903 882 716 882 441 c 4
 882 162 696 -27 463 -27 c 4
 199 -27 52 169 52 426 c 4
230 497 m 4
 230 291 300 70 497 70 c 4
 638 70 704 218 704 359 c 4
 704 557 635 798 445 798 c 4
 294 798 230 654 230 497 c 4
EndSplineSet
Colour: ffffff
EndChar

StartChar: p
Encoding: 112 112 46
Width: 968
VWidth: 0
Flags: HW
LayerCount: 2
Fore
SplineSet
13 -372 m 1
 19 -294 l 1
 172 -256 l 1
 172 722 l 1
 18 768 l 1
 30 845 l 1
 321 882 l 1
 342 863 l 1
 328 734 l 1
 335 734 l 1
 385 804 480 899 611 899 c 0
 782 899 914 771 914 467 c 0
 914 182 726 -19 469 -19 c 0
 439 -19 408 -16 375 -10 c 1
 369 111 l 1
 415 93 443 89 522 89 c 0
 660 89 731 218 731 406 c 0
 731 643 668 768 540 768 c 0
 454 768 379 712 335 666 c 1
 335 -257 l 1
 491 -292 l 1
 479 -372 l 1
 13 -372 l 1
EndSplineSet
Colour: ffffff
EndChar

StartChar: q
Encoding: 113 113 47
Width: 955
VWidth: 0
Flags: HW
LayerCount: 2
Fore
SplineSet
54 412 m 0
 54 683 284 900 494 900 c 0
 560 900 637 869 667 853 c 1
 784 892 l 1
 813 890 l 1
 813 -251 l 1
 973 -285 l 1
 962 -366 l 1
 486 -366 l 1
 496 -287 l 1
 647 -251 l 1
 647 663 l 1
 613 724 545 801 445 801 c 0
 323 801 228 677 228 474 c 0
 228 237 320 104 446 104 c 0
 476 104 569 118 618 148 c 1
 621 73 l 1
 559 14 451 -21 381 -21 c 0
 204 -21 54 115 54 412 c 0
EndSplineSet
Colour: ffffff
EndChar

StartChar: r
Encoding: 114 114 48
Width: 735
VWidth: 0
Flags: HW
LayerCount: 2
Fore
SplineSet
40 0 m 1
 50 74 l 1
 203 114 l 1
 203 728 l 1
 40 777 l 1
 54 853 l 1
 341 890 l 1
 364 866 l 1
 344 636 l 1
 363 636 l 1
 416 817 515 906 598 906 c 0
 672 906 718 852 718 793 c 0
 718 750 693 709 640 673 c 1
 606 703 566 722 530 722 c 0
 477 722 390 655 369 504 c 1
 369 121 l 1
 602 87 l 1
 592 0 l 1
 40 0 l 1
EndSplineSet
Colour: ffffff
EndChar

StartChar: s
Encoding: 115 115 49
Width: 697
VWidth: 0
Flags: HW
LayerCount: 2
Fore
SplineSet
50 141 m 0
 50 208 99 265 182 271 c 1
 225 130 295 64 371 64 c 0
 441 64 503 91 503 165 c 0
 503 324 74 360 74 635 c 0
 74 751 170 900 372 900 c 0
 503 900 617 845 617 734 c 0
 617 651 564 595 477 589 c 1
 470 632 l 2
 442 780 380 816 321 816 c 0
 251 816 209 760 209 696 c 0
 209 509 648 487 648 220 c 0
 648 72 494 -34 340 -34 c 0
 162 -34 50 51 50 141 c 0
EndSplineSet
Colour: ffffff
EndChar

StartChar: t
Encoding: 116 116 50
Width: 649
VWidth: 0
Flags: W
HStem: -23 145<357.17 525.271> 781 88<328 602>
VStem: 151 172<158.938 781>
LayerCount: 2
Fore
SplineSet
28 783 m 1
 28 837 l 1
 111 901 205 998 275 1087 c 1
 328 1087 l 1
 328 869 l 1
 611 869 l 1
 602 781 l 1
 326 781 l 1
 323 319 l 2
 323 168 368 122 470 122 c 0
 544 122 614 178 614 178 c 1
 635 124 l 1
 574 35 478 -23 364 -23 c 0
 242 -23 149 37 151 260 c 2
 155 783 l 1
 28 783 l 1
EndSplineSet
Colour: ffffff
EndChar

StartChar: u
Encoding: 117 117 51
Width: 1002
VWidth: 0
Flags: W
HStem: -23 137<371.615 551.03> -4 83<940 977> 764 92<517 561.272> 863 20G<45.7619 321.833 593.222 828.5>
VStem: 157 169<160.4 728> 666 166<110.471 131 153.644 722>
LayerCount: 2
Fore
SplineSet
19 783 m 1xbc
 33 862 l 1
 301 883 l 1
 326 859 l 1
 326 317 l 2
 326 166 390 114 480 114 c 0xbc
 570 114 623 147 666 191 c 1
 666 722 l 1
 507 764 l 1
 517 856 l 1
 811 883 l 1
 832 859 l 1
 832 215 l 2
 832 115 874 104 940 89 c 2
 986 79 l 1
 977 -4 l 1x7c
 915 -19 885 -23 826 -23 c 0
 726 -23 679 39 679 122 c 2
 679 131 l 1
 666 131 l 1
 596 29 501 -23 380 -23 c 0
 251 -23 157 52 157 267 c 2
 157 728 l 1
 19 783 l 1xbc
EndSplineSet
Colour: ffffff
EndChar

StartChar: v
Encoding: 118 118 52
Width: 904
VWidth: 0
Flags: HW
LayerCount: 2
Fore
SplineSet
-6 798 m 1
 4 873 l 1
 451 873 l 1
 443 799 l 1
 298 758 l 1
 486 194 l 1
 678 756 l 1
 517 798 l 1
 531 873 l 1
 914 873 l 1
 902 799 l 1
 794 758 l 1
 521 -10 l 1
 394 -28 l 1
 116 756 l 1
 -6 798 l 1
EndSplineSet
Colour: ffffff
EndChar

StartChar: w
Encoding: 119 119 53
Width: 1234
VWidth: 0
Flags: HW
LayerCount: 2
Fore
SplineSet
-2 799 m 1
 8 875 l 1
 423 875 l 1
 414 801 l 1
 279 760 l 1
 390 360 l 1
 414 240 l 1
 565 811 l 1
 704 829 l 1
 841 345 l 1
 862 234 l 1
 998 758 l 1
 848 799 l 1
 858 875 l 1
 1241 875 l 1
 1229 801 l 1
 1121 760 l 1
 909 -10 l 1
 790 -28 l 1
 617 586 l 1
 460 -10 l 1
 341 -28 l 1
 113 758 l 1
 -2 799 l 1
EndSplineSet
Colour: ffffff
EndChar

StartChar: x
Encoding: 120 120 54
Width: 958
VWidth: 0
Flags: W
HStem: 0 74<371.657 409 495 537.675> 806 76<552 584.763>
LayerCount: 2
Fore
SplineSet
21 0 m 1
 31 73 l 1
 138 114 l 1
 383 436 l 1
 154 764 l 1
 36 806 l 1
 46 882 l 1
 480 882 l 1
 467 807 l 1
 352 767 l 1
 508 549 l 1
 675 764 l 1
 538 806 l 1
 552 882 l 1
 927 882 l 1
 914 807 l 1
 810 767 l 1
 580 467 l 1
 823 114 l 1
 936 74 l 1
 927 0 l 1
 482 0 l 1
 495 73 l 1
 623 114 l 1
 458 351 l 1
 277 114 l 1
 419 74 l 1
 409 0 l 1
 21 0 l 1
EndSplineSet
Colour: ffffff
EndChar

StartChar: y
Encoding: 121 121 55
Width: 931
VWidth: 0
Flags: HW
LayerCount: 2
Fore
SplineSet
8 -261 m 0
 8 -221 18 -181 64 -141 c 1
 118 -178 162 -194 215 -194 c 0
 264 -194 332 -183 386 -49 c 2
 406 0 l 1
 121 758 l 1
 -3 796 l 1
 8 873 l 1
 428 873 l 1
 419 799 l 1
 292 761 l 1
 496 222 l 1
 712 756 l 1
 581 798 l 1
 595 873 l 1
 937 873 l 1
 930 799 l 1
 829 758 l 1
 498 -53 l 2
 394 -309 313 -380 162 -380 c 0
 70 -380 8 -318 8 -261 c 0
EndSplineSet
Colour: ffffff
EndChar

StartChar: z
Encoding: 122 122 56
Width: 818
VWidth: 0
Flags: HW
LayerCount: 2
Fore
SplineSet
53 87 m 1
 543 780 l 1
 206 780 l 1
 147 595 l 1
 70 608 l 1
 78 873 l 1
 750 873 l 1
 750 799 l 1
 248 99 l 1
 608 99 l 1
 703 275 l 1
 770 267 l 1
 728 0 l 1
 57 0 l 1
 53 87 l 1
EndSplineSet
Colour: ffffff
EndChar

StartChar: A
Encoding: 65 65 57
Width: 1278
VWidth: 1691
Flags: W
HStem: 0 80<406.761 431 725 754.091 1211.04 1228> 432 102<406 758> 1248 20G<612.581 716.818>
LayerCount: 2
Fore
SplineSet
-37 0 m 5
 -28 74 l 5
 121 129 l 5
 559 1237 l 5
 710 1268 l 5
 1100 124 l 5
 1237 80 l 5
 1228 0 l 5
 713 0 l 5
 725 74 l 5
 896 129 l 5
 787 432 l 5
 368 432 l 5
 256 124 l 5
 442 80 l 5
 431 0 l 5
 -37 0 l 5
406 534 m 5
 758 534 l 5
 592 1034 l 5
 406 534 l 5
EndSplineSet
Colour: ffffff
EndChar

StartChar: B
Encoding: 66 66 58
Width: 1127
VWidth: 1691
Flags: HW
LayerCount: 2
Fore
SplineSet
50 0 m 1
 61 74 l 1
 228 121 l 1
 228 1104 l 1
 57 1134 l 1
 67 1211 l 1
 212 1232 382 1257 559 1257 c 0
 869 1257 996 1118 996 967 c 0
 996 863 947 736 790 679 c 1
 790 672 l 1
 995 661 1100 512 1100 380 c 0
 1100 192 970 0 568 0 c 2
 50 0 l 1
420 96 m 1
 640 96 l 2
 814 96 904 218 904 347 c 0
 904 471 818 605 643 605 c 2
 420 605 l 1
 420 96 l 1
420 688 m 1
 678 688 l 1
 764 724 808 795 808 909 c 0
 808 1033 743 1171 500 1171 c 0
 476 1171 447 1168 420 1164 c 1
 420 688 l 1
EndSplineSet
Colour: ffffff
EndChar

StartChar: C
Encoding: 67 67 59
Width: 1111
VWidth: 1691
Flags: HW
LayerCount: 2
Fore
SplineSet
61 589 m 0
 61 884 246 1269 704 1269 c 0
 839.646 1269 977.348 1242 1076 1169 c 1
 1025 837 l 1
 937 850 l 1
 915 1070 l 1
 867.217 1129 781 1174 647 1174 c 0
 439 1174 275 980 275 658 c 0
 275 299 491 111 728 111 c 0
 862 111 992 182 1078 261 c 1
 1113 185 l 1
 1034 89 859 -24 651 -24 c 0
 344 -24 61 190 61 589 c 0
EndSplineSet
Colour: ffffff
EndChar

StartChar: D
Encoding: 68 68 60
Width: 1327
VWidth: 1691
Flags: HW
LayerCount: 2
Fore
SplineSet
47 0 m 1
 61 74 l 1
 233 129 l 1
 233 1103 l 1
 61 1133 l 1
 70 1209 l 1
 267 1240 438 1258 583 1258 c 0
 1145 1258 1304 961 1304 653 c 0
 1304 311 1053 0 541 0 c 2
 47 0 l 1
424 104 m 1
 569 104 l 2
 924 104 1093 331 1093 598 c 0
 1093 905 914 1155 546 1155 c 0
 506 1155 464 1155 424 1151 c 1
 424 104 l 1
EndSplineSet
Colour: ffffff
EndChar

StartChar: E
Encoding: 69 69 61
Width: 1075
VWidth: 1691
Flags: HW
LayerCount: 2
Fore
SplineSet
50 1168 m 1
 61 1244 l 1
 1056 1244 l 1
 1025 924 l 1
 938 937 l 1
 897 1152 l 1
 426 1152 l 1
 426 676 l 1
 716 676 l 1
 758 796 l 1
 853 810 l 1
 819 421 l 1
 734 408 l 1
 700 583 l 1
 426 583 l 1
 426 96 l 1
 921 96 l 1
 1019 326 l 1
 1102 313 l 1
 1072 0 l 1
 57 0 l 1
 65 74 l 1
 232 121 l 1
 232 1126 l 1
 50 1168 l 1
EndSplineSet
Colour: ffffff
EndChar

StartChar: F
Encoding: 70 70 62
Width: 1028
VWidth: 1691
Flags: HW
LayerCount: 2
Fore
SplineSet
50 1168 m 1
 61 1244 l 1
 1054 1244 l 1
 1013 922 l 1
 925 936 l 1
 891 1152 l 1
 426 1152 l 1
 426 670 l 1
 713 670 l 1
 755 790 l 1
 845 804 l 1
 818 412 l 1
 730 398 l 1
 700 578 l 1
 426 578 l 1
 423 122 l 1
 661 83 l 1
 648 0 l 1
 57 0 l 1
 65 74 l 1
 232 121 l 1
 232 1126 l 1
 50 1168 l 1
EndSplineSet
Colour: ffffff
EndChar

StartChar: G
Encoding: 71 71 63
Width: 1276
VWidth: 1691
Flags: HW
LayerCount: 2
Fore
SplineSet
61 578 m 0
 61 1007 385 1260 717 1260 c 0
 894 1260 1040 1225.92 1139 1173 c 5
 1105 851 l 5
 1018 866 l 5
 992 1057 l 5
 946 1098.96 824 1161 667 1161 c 0
 470 1161 276 1013 276 647 c 0
 276 350 454 77 771 77 c 0
 851 77 915 103 943 119 c 1
 943 434 l 1
 707 472 l 1
 719 555 l 1
 1275 555 l 1
 1263 480 l 1
 1139 439 l 1
 1139 79 l 1
 1007 0 858 -31 658 -31 c 0
 256 -31 61 237 61 578 c 0
EndSplineSet
Colour: ffffff
EndChar

StartChar: H
Encoding: 72 72 64
Width: 1416
VWidth: 1691
Flags: HW
LayerCount: 2
Fore
SplineSet
50 1168 m 1
 61 1244 l 1
 605 1244 l 1
 595 1168 l 1
 427 1130 l 1
 427 692 l 1
 1054 692 l 1
 1054 1126 l 1
 871 1168 l 1
 882 1244 l 1
 1428 1244 l 1
 1416 1168 l 1
 1249 1130 l 1
 1249 114 l 1
 1431 80 l 1
 1421 0 l 1
 878 0 l 1
 888 74 l 1
 1054 121 l 1
 1054 589 l 1
 427 589 l 1
 427 114 l 1
 611 80 l 1
 598 0 l 1
 57 0 l 1
 65 74 l 1
 232 121 l 1
 232 1126 l 1
 50 1168 l 1
EndSplineSet
Colour: ffffff
EndChar

StartChar: I
Encoding: 73 73 65
Width: 601
VWidth: 1691
Flags: W
HStem: 0 80<65 98.9539 562.623 597> 1168 76<61 112.123 531.243 595>
VStem: 232 194<121 1126>
LayerCount: 2
Fore
SplineSet
50 1168 m 1
 61 1244 l 1
 605 1244 l 5
 595 1168 l 1
 426 1130 l 1
 426 114 l 1
 607 80 l 1
 597 0 l 1
 57 0 l 1
 65 74 l 1
 232 121 l 1
 232 1126 l 1
 50 1168 l 1
EndSplineSet
Colour: ffffff
EndChar

StartChar: J
Encoding: 74 74 66
Width: 592
VWidth: 1691
Flags: HW
LayerCount: 2
Fore
SplineSet
-4 -237 m 1
 151 -90 232 37 232 197 c 2
 233 1126 l 1
 52 1168 l 1
 62 1244 l 1
 607 1244 l 1
 597 1168 l 1
 427 1130 l 1
 426 385 l 2
 425 -24 337 -138 50 -326 c 1
 -4 -237 l 1
EndSplineSet
Colour: ffffff
EndChar

StartChar: K
Encoding: 75 75 67
Width: 1228
VWidth: 1691
Flags: HW
LayerCount: 2
Fore
SplineSet
47 1168 m 1
 61 1244 l 1
 611 1244 l 1
 601 1168 l 1
 429 1121 l 1
 429 124 l 1
 618 80 l 1
 607 0 l 1
 54 0 l 1
 64 74 l 1
 236 129 l 1
 236 1117 l 1
 47 1168 l 1
453 626 m 1
 481 654 574 758 605 798 c 2
 851 1121 l 1
 696 1168 l 1
 704 1244 l 1
 1197 1244 l 1
 1185 1168 l 1
 1008 1121 l 1
 635 653 l 1
 862 385 l 2
 1013 206 1085 123 1213 83 c 2
 1250 70 l 1
 1240 1 l 1
 1194 -15 1149 -21 1109 -21 c 0
 942 -21 820 104 706 261 c 2
 454 605 l 1
 453 626 l 1
EndSplineSet
Colour: ffffff
EndChar

StartChar: L
Encoding: 76 76 68
Width: 1065
VWidth: 1691
Flags: HW
LayerCount: 2
Fore
SplineSet
58 0 m 5
 67 74 l 5
 233 121 l 5
 233 1117 l 5
 45 1168 l 5
 58 1244 l 5
 608 1244 l 5
 598 1168 l 5
 427 1121 l 5
 427 96 l 5
 869 96 l 5
 1000 344 l 5
 1085 331 l 5
 1048 0 l 5
 58 0 l 5
EndSplineSet
Colour: ffffff
EndChar

StartChar: M
Encoding: 77 77 69
Width: 1664
VWidth: 1691
Flags: HW
HStem: 0 74<35 85.9386 451.413 504 1139 1189.63 1608.77 1664> 1168 76<102 154.464 1544.62 1608>
DStem2: 202 121 334 114 0.072446 0.997372<2.58126 857.904> 583 1050 397 967 0.344078 -0.938941<13.9336 782.148> 845 313 868 50 0.370887 0.928678<0 791.555> 1440 1130 1249 1004 0.0511142 -0.998693<116.072 1000.78>
LayerCount: 2
Fore
SplineSet
24 0 m 1
 35 74 l 1
 202 121 l 1
 275 1126 l 1
 92 1168 l 1
 102 1244 l 1
 505 1244 l 1
 583 1050 l 1
 845 313 l 1
 1152 1083 l 1
 1223 1244 l 1
 1618 1244 l 1
 1608 1168 l 1
 1440 1130 l 1
 1492 114 l 1
 1674 80 l 1
 1664 0 l 1
 1128 0 l 1
 1139 74 l 1
 1305 121 l 1
 1249 1004 l 1
 868 50 l 1
 740 31 l 1
 397 967 l 1
 334 114 l 1
 517 80 l 1
 504 0 l 1
 24 0 l 1
EndSplineSet
Colour: ffffff
EndChar

StartChar: N
Encoding: 78 78 70
Width: 1337
VWidth: 1691
Flags: W
HStem: 0 80<65 98.9539 498.133 532> 1168 76<61 101.16 881 932.147 1280 1343>
VStem: 232 128<121 961> 1054 122<274 1126>
LayerCount: 2
Fore
SplineSet
50 1168 m 1
 61 1244 l 1
 411 1244 l 1
 1054 274 l 1
 1054 1126 l 1
 869 1168 l 1
 881 1244 l 1
 1356 1244 l 1
 1343 1168 l 1
 1176 1130 l 1
 1176 1 l 1
 1023 -30 l 1
 360 961 l 1
 360 114 l 1
 543 80 l 1
 532 0 l 1
 57 0 l 1
 65 74 l 1
 232 121 l 1
 232 1117 l 1
 50 1168 l 1
EndSplineSet
Colour: ffffff
EndChar

StartChar: O
Encoding: 79 79 71
Width: 1322
VWidth: 1691
Flags: W
HStem: -27 106<524.151 869.468> 1176 96<470.169 820.972>
VStem: 61 222<381.135 879.357> 1062 222<372.174 858.962>
LayerCount: 2
Fore
SplineSet
61 619 m 0
 61 1004 308 1272 706 1272 c 0
 1068 1272 1284 970 1284 619 c 0
 1284 274 1051 -27 636 -27 c 0
 291 -27 61 257 61 619 c 0
283 676 m 0
 283 382 398 79 686 79 c 0
 990 79 1062 330 1062 573 c 0
 1062 856 945 1176 658 1176 c 0
 358 1176 283 937 283 676 c 0
EndSplineSet
Colour: ffffff
EndChar

StartChar: P
Encoding: 80 80 72
Width: 1009
VWidth: 1691
Flags: HW
LayerCount: 2
Fore
SplineSet
50 0 m 1
 61 74 l 1
 228 121 l 1
 228 1104 l 1
 57 1134 l 1
 67 1211 l 1
 196 1230 372 1255 543 1255 c 0
 804 1255 1045 1184 1045 892 c 0
 1045 655 827 494 584 494 c 0
 548 494 515 496 484 497 c 1
 466 580 l 1
 519 581 l 2
 734 587 838 678 838 856 c 0
 838 1027 750 1172 522 1172 c 0
 482 1172 420 1166 420 1166 c 1
 420 122 l 1
 657 83 l 1
 643 0 l 1
 50 0 l 1
EndSplineSet
Colour: ffffff
EndChar

StartChar: Q
Encoding: 81 81 73
Width: 1334
VWidth: 1691
Flags: HW
LayerCount: 2
Fore
SplineSet
61 608 m 0
 61 994 325 1272 721 1272 c 0
 1078 1272 1299 980 1299 629 c 0
 1299 335 1122 68 818 -6 c 1
 877 -141 963 -228 1250 -275 c 1
 1250 -299 1247 -333 1241 -351 c 1
 1179 -381 1121 -385 1065 -385 c 0
 884 -385 721 -249 703 -21 c 1
 693 -24 653 -27 638 -27 c 0
 293 -27 61 246 61 608 c 0
263 679 m 0
 263 439 369 88 749 67 c 1
 1019 134 1092 336 1092 563 c 0
 1092 857 928 1168 664 1168 c 0
 413 1168 263 989 263 679 c 0
EndSplineSet
Colour: ffffff
EndChar

StartChar: R
Encoding: 82 82 74
Width: 1213
VWidth: 1691
Flags: HW
LayerCount: 2
Fore
SplineSet
50 0 m 1
 61 74 l 1
 228 121 l 1
 228 1100 l 1
 57 1130 l 1
 67 1207 l 1
 214 1230 375 1253 523 1253 c 0
 820 1253 1025 1176 1025 943 c 0
 1025 814 926 666 738 599 c 1
 738 598 l 1
 918 349 l 2
 1035 187 1087 114 1211 77 c 2
 1244 67 l 1
 1229 -1 l 1
 1186 -16 1146 -21 1109 -21 c 0
 950 -21 840 98 753 253 c 2
 594 537 l 1
 420 537 l 1
 420 126 l 1
 608 83 l 1
 598 0 l 1
 50 0 l 1
420 628 m 1
 618 628 l 1
 717 661 818 745 818 887 c 0
 818 1051 717 1169 540 1169 c 0
 470 1169 420 1164 420 1164 c 1
 420 628 l 1
EndSplineSet
Colour: ffffff
EndChar

StartChar: S
Encoding: 83 83 75
Width: 863
VWidth: 1691
Flags: HW
LayerCount: 2
Fore
SplineSet
46 122 m 1
 79 389 l 1
 181 375 l 1
 200 187 l 1
 239.495 130 323.971 77 426 77 c 0
 531 77 663 139 663 287 c 0
 663 547 90 544 90 916 c 0
 90 1143 282 1269 479 1269 c 0
 594.66 1269 696.397 1235 781 1169 c 5
 781 1161 739 887 739 887 c 1
 640 899 l 1
 635 1090 l 5
 614.882 1126 534.412 1185 445 1185 c 0
 345 1185 263 1126 263 995 c 0
 263 708 847 730 847 354 c 0
 847 124 630 -24 402 -24 c 0
 249.429 -24 113.81 43 46 122 c 1
EndSplineSet
Colour: ffffff
EndChar

StartChar: T
Encoding: 84 84 76
Width: 1119
VWidth: 1691
Flags: HW
LayerCount: 2
Fore
SplineSet
23 1244 m 1
 1134 1244 l 1
 1100 906 l 1
 1005 921 l 1
 967 1152 l 1
 662 1152 l 1
 662 114 l 1
 847 80 l 1
 833 0 l 1
 294 0 l 1
 301 74 l 1
 470 121 l 1
 470 1152 l 1
 175 1152 l 1
 122 909 l 1
 31 922 l 1
 23 1244 l 1
EndSplineSet
Colour: ffffff
EndChar

StartChar: U
Encoding: 85 85 77
Width: 1369
VWidth: 1691
Flags: HW
LayerCount: 2
Fore
SplineSet
22 1168 m 1
 35 1244 l 1
 577 1244 l 1
 568 1168 l 1
 399 1130 l 1
 399 510 l 2
 399 225 542 105 747 105 c 0
 949 105 1071 221 1072 482 c 2
 1075 1126 l 1
 892 1168 l 1
 902 1244 l 1
 1380 1244 l 1
 1369 1168 l 1
 1203 1130 l 1
 1198 515 l 2
 1195 155 1044 -27 697 -27 c 0
 466 -27 206 48 206 469 c 2
 206 1126 l 1
 22 1168 l 1
EndSplineSet
Colour: ffffff
EndChar

StartChar: V
Encoding: 86 86 78
Width: 1284
VWidth: 1691
Flags: HW
LayerCount: 2
Fore
SplineSet
-21 1168 m 1
 -11 1244 l 1
 527 1244 l 1
 517 1168 l 1
 347 1130 l 1
 660 251 l 1
 980 1126 l 1
 798 1168 l 1
 805 1244 l 1
 1260 1244 l 1
 1253 1168 l 1
 1121 1130 l 1
 696 4 l 1
 544 -24 l 1
 126 1126 l 1
 -21 1168 l 1
EndSplineSet
Colour: ffffff
EndChar

StartChar: W
Encoding: 87 87 79
Width: 1844
VWidth: 1691
Flags: HW
LayerCount: 2
Fore
SplineSet
-11 1168 m 1
 -2 1244 l 1
 512 1244 l 1
 497 1168 l 1
 330 1130 l 1
 572 271 l 1
 853 1194 l 1
 1029 1219 l 1
 1277 287 l 1
 1538 1126 l 1
 1357 1168 l 1
 1368 1244 l 1
 1817 1244 l 1
 1806 1168 l 1
 1683 1130 l 1
 1318 4 l 1
 1164 -24 l 1
 902 951 l 1
 617 4 l 1
 454 -24 l 1
 129 1126 l 1
 -11 1168 l 1
EndSplineSet
Colour: ffffff
EndChar

StartChar: X
Encoding: 88 88 80
Width: 1202
VWidth: 1691
Flags: HW
LayerCount: 2
Fore
SplineSet
-1 0 m 1
 11 76 l 1
 138 121 l 1
 504 615 l 1
 165 1123 l 1
 28 1166 l 1
 40 1244 l 1
 553 1244 l 1
 543 1166 l 1
 386 1121 l 1
 633 750 l 1
 904 1126 l 1
 734 1166 l 1
 747 1244 l 1
 1182 1244 l 1
 1174 1168 l 1
 1047 1130 l 1
 709 657 l 1
 1050 114 l 1
 1185 80 l 1
 1172 0 l 1
 669 0 l 1
 682 74 l 1
 842 121 l 1
 580 529 l 1
 288 117 l 1
 454 83 l 1
 439 0 l 1
 -1 0 l 1
EndSplineSet
Colour: ffffff
EndChar

StartChar: Y
Encoding: 89 89 81
Width: 1210
VWidth: 1691
Flags: HW
LayerCount: 2
Fore
SplineSet
-21 1168 m 1
 -8 1244 l 1
 500 1244 l 1
 488 1168 l 1
 330 1130 l 1
 607 640 l 1
 871 1126 l 1
 688 1168 l 1
 698 1244 l 1
 1143 1244 l 1
 1133 1168 l 1
 1008 1130 l 1
 663 529 l 1
 663 114 l 1
 826 80 l 1
 816 0 l 1
 310 0 l 1
 320 74 l 1
 470 121 l 1
 470 504 l 1
 117 1126 l 1
 -21 1168 l 1
EndSplineSet
Colour: ffffff
EndChar

StartChar: Z
Encoding: 90 90 82
Width: 1009
VWidth: 1691
Flags: HW
LayerCount: 2
Fore
SplineSet
47 104 m 1
 792 1149 l 1
 255 1149 l 1
 178 903 l 1
 88 921 l 1
 98 1244 l 1
 1026 1244 l 1
 1026 1168 l 1
 262 100 l 1
 832 100 l 1
 955 351 l 1
 1048 335 l 1
 991 0 l 1
 55 0 l 1
 47 104 l 1
EndSplineSet
Colour: ffffff
EndChar
